<svg width="30" height="30" viewBox="0 0 30 30" fill="none" xmlns="http://www.w3.org/2000/svg">
<path d="M29.4316 11.1797C29.6602 10.998 30 11.168 30 11.4551V23.4375C30 24.9902 28.7402 26.25 27.1875 26.25H2.8125C1.25977 26.25 0 24.9902 0 23.4375V11.4609C0 11.168 0.333984 11.0039 0.568359 11.1855C1.88086 12.2051 3.62109 13.5 9.59766 17.8418C10.834 18.7441 12.9199 20.6426 15 20.6309C17.0918 20.6484 19.2188 18.709 20.4082 17.8418C26.3848 13.5 28.1191 12.1992 29.4316 11.1797ZM15 18.75C16.3594 18.7734 18.3164 17.0391 19.3008 16.3242C27.0762 10.6816 27.668 10.1895 29.4609 8.7832C29.8008 8.51953 30 8.10938 30 7.67578V6.5625C30 5.00977 28.7402 3.75 27.1875 3.75H2.8125C1.25977 3.75 0 5.00977 0 6.5625V7.67578C0 8.10938 0.199219 8.51367 0.539062 8.7832C2.33203 10.1836 2.92383 10.6816 10.6992 16.3242C11.6836 17.0391 13.6406 18.7734 15 18.75Z" fill="#7159C1"/>
</svg>
