<svg width="30" height="31" viewBox="0 0 30 31" fill="none" xmlns="http://www.w3.org/2000/svg">
<path d="M10.0343 24.0363C10.0343 24.1573 9.89516 24.254 9.71976 24.254C9.52016 24.2722 9.38105 24.1754 9.38105 24.0363C9.38105 23.9153 9.52016 23.8186 9.69556 23.8186C9.87702 23.8004 10.0343 23.8972 10.0343 24.0363ZM8.15323 23.7641C8.11089 23.8851 8.23186 24.0242 8.41331 24.0605C8.57056 24.121 8.75202 24.0605 8.78831 23.9395C8.8246 23.8186 8.70968 23.6795 8.52823 23.625C8.37097 23.5827 8.19556 23.6432 8.15323 23.7641ZM10.8266 23.6613C10.6512 23.7036 10.5302 23.8186 10.5484 23.9577C10.5665 24.0786 10.7238 24.1573 10.9052 24.1149C11.0806 24.0726 11.2016 23.9577 11.1835 23.8367C11.1653 23.7218 11.002 23.6432 10.8266 23.6613ZM14.8065 0.483887C6.41734 0.483887 0 6.85284 0 15.242C0 21.9496 4.22177 27.6895 10.252 29.7097C11.0262 29.8488 11.2984 29.371 11.2984 28.9778C11.2984 28.6028 11.2802 26.5343 11.2802 25.2641C11.2802 25.2641 7.04637 26.1714 6.15726 23.4617C6.15726 23.4617 5.46774 21.7016 4.47581 21.248C4.47581 21.248 3.09073 20.2984 4.57258 20.3165C4.57258 20.3165 6.07863 20.4375 6.90726 21.877C8.23185 24.2117 10.4516 23.5403 11.3165 23.1411C11.4556 22.1734 11.8488 21.502 12.2843 21.1028C8.90323 20.7278 5.49194 20.2379 5.49194 14.4194C5.49194 12.7561 5.95161 11.9214 6.91935 10.8569C6.7621 10.4637 6.24798 8.84276 7.07661 6.75002C8.34073 6.35687 11.25 8.38308 11.25 8.38308C12.4597 8.04437 13.7601 7.86897 15.0484 7.86897C16.3367 7.86897 17.6371 8.04437 18.8468 8.38308C18.8468 8.38308 21.756 6.35082 23.0202 6.75002C23.8488 8.84881 23.3347 10.4637 23.1774 10.8569C24.1452 11.9274 24.7379 12.7621 24.7379 14.4194C24.7379 20.2561 21.1754 20.7218 17.7944 21.1028C18.3508 21.5807 18.8226 22.4879 18.8226 23.9093C18.8226 25.9476 18.8044 28.4698 18.8044 28.9657C18.8044 29.3589 19.0827 29.8367 19.8508 29.6976C25.8992 27.6895 30 21.9496 30 15.242C30 6.85284 23.1956 0.483887 14.8065 0.483887ZM5.87903 21.3448C5.8004 21.4053 5.81855 21.5444 5.92137 21.6593C6.01815 21.7561 6.15726 21.7984 6.23589 21.7198C6.31452 21.6593 6.29637 21.5202 6.19355 21.4053C6.09677 21.3085 5.95766 21.2661 5.87903 21.3448ZM5.22581 20.8549C5.18347 20.9335 5.24395 21.0303 5.36492 21.0907C5.46169 21.1512 5.58266 21.1331 5.625 21.0484C5.66734 20.9698 5.60685 20.873 5.48589 20.8125C5.36492 20.7762 5.26815 20.7944 5.22581 20.8549ZM7.18548 23.0081C7.08871 23.0867 7.125 23.2682 7.26411 23.3831C7.40323 23.5222 7.57863 23.5403 7.65726 23.4436C7.73589 23.3649 7.6996 23.1835 7.57863 23.0686C7.44556 22.9295 7.26411 22.9113 7.18548 23.0081ZM6.49597 22.119C6.39919 22.1795 6.39919 22.3367 6.49597 22.4758C6.59274 22.6149 6.75605 22.6754 6.83468 22.6149C6.93145 22.5363 6.93145 22.379 6.83468 22.2399C6.75 22.1008 6.59274 22.0403 6.49597 22.119Z" fill="#7159C1"/>
</svg>
