<svg width="30" height="30" viewBox="0 0 30 30" fill="none" xmlns="http://www.w3.org/2000/svg">
<path d="M26.9162 8.8896C26.9353 9.15608 26.9353 9.42262 26.9353 9.68911C26.9353 17.8172 20.7488 27.1827 9.44162 27.1827C5.95811 27.1827 2.72209 26.1738 0 24.4226C0.494941 24.4797 0.970781 24.4987 1.48477 24.4987C4.35908 24.4987 7.00506 23.528 9.11801 21.8719C6.41496 21.8147 4.14973 20.0444 3.36926 17.6079C3.75 17.6649 4.13068 17.703 4.53047 17.703C5.08248 17.703 5.63455 17.6269 6.14848 17.4937C3.33123 16.9226 1.21822 14.448 1.21822 11.4594V11.3833C2.03672 11.8401 2.98857 12.1257 3.99738 12.1637C2.34129 11.0596 1.25631 9.17512 1.25631 7.04313C1.25631 5.90102 1.56082 4.85407 2.09385 3.94036C5.12051 7.67131 9.67002 10.1078 14.7715 10.3744C14.6763 9.91751 14.6192 9.44167 14.6192 8.96577C14.6192 5.57741 17.3603 2.81729 20.7677 2.81729C22.538 2.81729 24.1369 3.55967 25.2601 4.75891C26.6496 4.49243 27.9821 3.97844 29.1623 3.27415C28.7054 4.70184 27.7346 5.90108 26.4593 6.66245C27.6966 6.52926 28.8959 6.18655 29.9999 5.71071C29.1625 6.92893 28.1154 8.01391 26.9162 8.8896Z" fill="#7159C1"/>
</svg>
